<svg xmlns="http://www.w3.org/2000/svg" viewBox="0 0 238.81 133.53"><defs><style>.cls-1{fill:#3381f8;}.cls-2{fill:#838489;}.cls-3{fill:#848589;}.cls-4{fill:#84858a;}.cls-5{fill:#85868a;}.cls-6{fill:gray;}</style></defs><g id="Layer_2" data-name="Layer 2"><g id="Image"><g id="doc_logo"><path class="cls-1" d="M182,71c-.9.32-1.79.67-2.7,1q-7.51,2.57-15.21,4.6-7.45,2-15,3.35c-4.17.76-8.34,1.49-12.52,2.16-2.67.44-5.36.77-8,1.11-3.84.48-7.68,1-11.54,1.36-2.17.18-4.35.33-6.53.54-3.18.32-6.38.28-9.56.65a36,36,0,0,1-4,.11c-4.8,0-9.6.42-14.39.18-3.29-.16-6.59,0-9.86-.29-4-.36-8.05-.58-12.07-1-5.63-.61-11.23-1.38-16.77-2.51a76.64,76.64,0,0,1-19.9-6.52,23.67,23.67,0,0,1-8.83-7c-3.25-4.54-2.62-11.39.85-15.6a30.66,30.66,0,0,1,9.52-7.24A97.59,97.59,0,0,1,36,41.07a5.76,5.76,0,0,1,2.23-.6,31.86,31.86,0,0,1-3.85,2.18,25.8,25.8,0,0,0-7.73,6.19,13.76,13.76,0,0,0-2.88,7.45,26,26,0,0,0,.1,4.33A10.26,10.26,0,0,0,27,66.88c3.41,3.59,7.74,5.69,12.26,7.45A88.23,88.23,0,0,0,54.36,78.6c4,.78,8,1.45,12,1.91,3,.35,5.93.72,8.91.93,3.35.25,6.71.44,10.07.59,6.31.29,12.61.19,18.91.12,4.24-.05,8.5-.3,12.74-.58,3-.2,6.05-.52,9.08-.7,2.82-.16,5.62-.57,8.42-.92,3.57-.44,7.14-.9,10.7-1.42,4.58-.68,9.16-1.4,13.72-2.29s9.36-1.87,14-3.12q4-1.09,7.93-2.24A1.24,1.24,0,0,1,182,71Z"/><path class="cls-2" d="M149,13.42h22V30.77l-22,14Z"/><path class="cls-1" d="M174,11.39H159.22V0h22.11V33.23L174,28.5Z"/><path class="cls-3" d="M196.56,65a18.62,18.62,0,0,1,2.85-1.65,46.75,46.75,0,0,0,10.9-8.27,16.84,16.84,0,0,0,3.89-6.35c1-3.3,0-6-2.14-8.48A31.35,31.35,0,0,0,204,34c-.42-.24-.82-.51-1.2-.75v-7.9a41.25,41.25,0,0,1,6.12,1.78,40.31,40.31,0,0,1,9.8,5.06A18.85,18.85,0,0,1,224.91,39c1.87,3.86,1,8.1-2.06,11.42a39.41,39.41,0,0,1-10.59,7.82,114.32,114.32,0,0,1-14.49,6.55C197.42,64.91,197.08,65.25,196.56,65Z"/><path class="cls-1" d="M184.09,34.27c0-4.78,0-9.36,0-14a1.61,1.61,0,0,1,.12-.38h17.17c.13,8.52-.27,17-.18,25.8Z"/><path class="cls-1" d="M47.58,69V44.1A2.41,2.41,0,0,1,48.83,44c3.79,0,7.57,0,11.35,0a12.08,12.08,0,0,1,10.73,5.75,12.5,12.5,0,0,1-.74,14.61A12,12,0,0,1,60.24,69C56.06,69,51.87,69,47.58,69ZM58.9,45.41V67.6a11.19,11.19,0,1,0,0-22.19Z"/><path class="cls-1" d="M139.64,52.31l34.59-21.85,34.64,21.88a1.52,1.52,0,0,1-1.2.27c-1.71,0-3.43-.06-5.13,0a5.24,5.24,0,0,1-3.28-1q-9.28-6-18.61-12c-2.11-1.36-4.21-2.74-6.39-4.16L167.32,40c-5.32,3.41-10.77,6.64-15.91,10.3a12.38,12.38,0,0,1-8.74,2.34c-1-.09-1.94,0-2.91,0Z"/><path class="cls-4" d="M101.29,56.72A12.94,12.94,0,0,1,87.92,69.83c-7.71-.1-13.4-5.61-13.35-13.46,0-7.7,5.87-13.25,13.56-13.23A13.13,13.13,0,0,1,101.29,56.72ZM86.79,68.37c3.26.71,8.72-1.11,11.38-5.51A12,12,0,0,0,97.42,49c-2.75-3.55-7.64-5.16-10.7-4.38a12.26,12.26,0,0,0-.3,2q0,9.8,0,19.61A7.34,7.34,0,0,0,86.79,68.37Z"/><path class="cls-1" d="M127.31,49.61c-.81.33-1.2,0-1.6-.59a11.56,11.56,0,0,0-10.53-4.4c-.34,7.85-.27,15.73-.06,23.64a6.54,6.54,0,0,0,4.16-.12,11.72,11.72,0,0,0,7.36-5.55c.34-.55.45-1.5,1.48-1.34.75.49.4,1.09.12,1.59a13.42,13.42,0,1,1-21.46-15.7,12.41,12.41,0,0,1,7.65-3.84,13.41,13.41,0,0,1,12,4.19C126.93,48,127.67,48.58,127.31,49.61Z"/><path class="cls-5" d="M145.39,18a18.68,18.68,0,0,1,0,3c-.39.33-.81.2-1.2.2h-8.67c-4.3,0-8.59.34-12.88.55-3.11.15-6.22.34-9.32.64-4.6.45-9.16,1.13-13.69,2-6.71,1.32-13.36,2.87-20,4.44-4.45,1.05-8.88,2.24-13.31,3.38-3.34.85-6.67,1.73-10,2.56a1.45,1.45,0,0,1-1.53-.1A257.73,257.73,0,0,1,145.39,18Z"/><path class="cls-4" d="M193.67,17.86H184V9.09h9.71Z"/><path class="cls-1" d="M170.35,43.4a6.69,6.69,0,0,1,0-2.4h3.36a8.25,8.25,0,0,1,.13,2.29A18.13,18.13,0,0,1,170.35,43.4Z"/><path class="cls-1" d="M174.61,43.34V41a31.29,31.29,0,0,1,3.53-.12,11.54,11.54,0,0,1,0,2.42Z"/><path class="cls-1" d="M170.31,46.09a6.85,6.85,0,0,1,0-1.91h3.36a3.69,3.69,0,0,1,.11,1.8A18.68,18.68,0,0,1,170.31,46.09Z"/><path class="cls-1" d="M178.15,46h-3.48a4.64,4.64,0,0,1-.08-1.83,24.81,24.81,0,0,1,3.56-.07Z"/><path class="cls-6" d="M0,92.53H6.66a10.43,10.43,0,0,1,6,1.6,7.23,7.23,0,0,1,2.66,3.32,10.75,10.75,0,0,1,.76,4.07,10.2,10.2,0,0,1-1.58,5.79A7.7,7.7,0,0,1,11.65,110a7.93,7.93,0,0,1-3.8.91H0a2.5,2.5,0,0,0,.15-.9V93.43A2.62,2.62,0,0,0,0,92.53Zm4.73,16.19H6.35a4,4,0,0,0,3.32-1.48,8.74,8.74,0,0,0,1.61-5.65,7.53,7.53,0,0,0-2-5.7,4.5,4.5,0,0,0-3.22-1.22H4.73Z"/><path class="cls-6" d="M25.53,109.41a5.4,5.4,0,0,1-1.37,1.14,5.52,5.52,0,0,1-2.61.59,3.67,3.67,0,0,1-2.74-1,4.57,4.57,0,0,1-1.24-3.33,4.16,4.16,0,0,1,1.56-3.49,6.24,6.24,0,0,1,1.46-.88c.5-.2,1.45-.52,2.87-.94a3.32,3.32,0,0,0,1.44-.74,1.58,1.58,0,0,0,.44-1.17,1.61,1.61,0,0,0-.65-1.32,2.64,2.64,0,0,0-1.69-.5,4.84,4.84,0,0,0-1.72.29,9.81,9.81,0,0,0-1.87,1.1l-.52-2.4a15.21,15.21,0,0,1,5.47-1.06,6.78,6.78,0,0,1,3.91.94,3.18,3.18,0,0,1,1.34,2.75v8.1c0,.68.25,1,.74,1a1.52,1.52,0,0,0,.86-.41v2.15a6.39,6.39,0,0,1-1.42.73,4.51,4.51,0,0,1-1.37.18,3.38,3.38,0,0,1-1.75-.37A3.55,3.55,0,0,1,25.53,109.41Zm-.19-6.77c-.26.14-.91.46-1.95,1a3,3,0,0,0-1.31,1.16,3.07,3.07,0,0,0-.49,1.68,2.21,2.21,0,0,0,.46,1.47,1.57,1.57,0,0,0,1.25.54,1.93,1.93,0,0,0,1.46-.6,2.14,2.14,0,0,0,.58-1.55Z"/><path class="cls-6" d="M37.17,109.62v4.52a2.81,2.81,0,0,0,.15.9H32.76a2.58,2.58,0,0,0,.14-.9V97a2.74,2.74,0,0,0-.14-.9h4.32v1.61a4.41,4.41,0,0,1,3.8-2,4.33,4.33,0,0,1,3.66,1.8,9.68,9.68,0,0,1,1.56,5.92,9.52,9.52,0,0,1-1.51,5.79,4.62,4.62,0,0,1-1.77,1.43,5.21,5.21,0,0,1-2.31.52A4.2,4.2,0,0,1,37.17,109.62ZM39.4,98.16a1.9,1.9,0,0,0-1.08.35,2,2,0,0,0-.74.88,11.59,11.59,0,0,0-.54,4.28,10.08,10.08,0,0,0,.64,4.18,1.71,1.71,0,0,0,1.63,1.07,1.86,1.86,0,0,0,1.75-1.32,11.16,11.16,0,0,0,.56-4.08,11.48,11.48,0,0,0-.55-4.16,1.92,1.92,0,0,0-1.67-1.2Z"/><path class="cls-6" d="M55,95.68a6.59,6.59,0,0,1,5.16,2,8.22,8.22,0,0,1,1.9,5.71,8,8,0,0,1-2.15,5.92A6.57,6.57,0,0,1,55,111.14a6.56,6.56,0,0,1-4.93-1.84,8.28,8.28,0,0,1-2.13-6,7.91,7.91,0,0,1,1.94-5.58,5.78,5.78,0,0,1,2.16-1.5A8.29,8.29,0,0,1,55,95.68Zm0,1.81a1.82,1.82,0,0,0-1.08.38,2.25,2.25,0,0,0-.78,1,11.73,11.73,0,0,0-.7,4.52,12,12,0,0,0,.71,4.62,2.27,2.27,0,0,0,.77,1,1.91,1.91,0,0,0,1.1.37A1.84,1.84,0,0,0,56.1,109a2.3,2.3,0,0,0,.77-1,12,12,0,0,0,.71-4.58,11.8,11.8,0,0,0-.71-4.58,2.24,2.24,0,0,0-.77-.95A2,2,0,0,0,55,97.49Z"/><path class="cls-6" d="M81.77,92.24a9.86,9.86,0,0,1,6.5,2c1.92,1.61,2.89,4.08,2.89,7.4s-.88,5.6-2.62,7.22a9.79,9.79,0,0,1-6.88,2.27,10.55,10.55,0,0,1-5-1,7.45,7.45,0,0,1-3.51-3.91,12.26,12.26,0,0,1-.82-4.72,10.42,10.42,0,0,1,1.24-5.26Q75.84,92.29,81.77,92.24Zm0,2q-4.6,0-4.6,7.33a18.34,18.34,0,0,0,.24,3.26,7.85,7.85,0,0,0,.8,2.32,4.1,4.1,0,0,0,7,.18,10.62,10.62,0,0,0,1.16-5.53,11.5,11.5,0,0,0-1.08-5.59A3.81,3.81,0,0,0,81.77,94.23Z"/><path class="cls-6" d="M98,103.82V110a2.74,2.74,0,0,0,.14.9H93.53a2.28,2.28,0,0,0,.15-.9V92a2.35,2.35,0,0,0-.15-.9H98.1A2.5,2.5,0,0,0,98,92v10.19l4-5.32a3.27,3.27,0,0,0,.44-.8h3.4a6.49,6.49,0,0,0-.77.84l-3.62,4.34,5.28,8.8a3.44,3.44,0,0,0,.65.82h-5.19c-.18-.45-.31-.74-.38-.87Z"/><path class="cls-6" d="M120.05,109.87a13.76,13.76,0,0,1-2.67,1,11.8,11.8,0,0,1-2.69.27,7.83,7.83,0,0,1-5.92-2.15,7.46,7.46,0,0,1-1.88-5.37,8.28,8.28,0,0,1,2.07-6,6.78,6.78,0,0,1,5.14-2c2.87,0,4.83,1.16,5.87,3.46a10.52,10.52,0,0,1,.78,4.28h-9.41a10.16,10.16,0,0,0,.48,3.4,3.5,3.5,0,0,0,3.61,2.43,6.2,6.2,0,0,0,4.16-1.81Zm-8.63-8.37h4.81a13.24,13.24,0,0,0-.25-2,2.88,2.88,0,0,0-.79-1.45,1.87,1.87,0,0,0-1.31-.54,2,2,0,0,0-1.72,1A6.26,6.26,0,0,0,111.42,101.5Z"/><path class="cls-6" d="M129.5,95.68a6.6,6.6,0,0,1,5.16,2,8.21,8.21,0,0,1,1.89,5.71,7.93,7.93,0,0,1-2.15,5.92,7.55,7.55,0,0,1-9.82,0,8.32,8.32,0,0,1-2.12-6,7.91,7.91,0,0,1,1.93-5.58,5.81,5.81,0,0,1,2.17-1.5A8.21,8.21,0,0,1,129.5,95.68Zm0,1.81a1.85,1.85,0,0,0-1.09.38,2.25,2.25,0,0,0-.78,1,15.06,15.06,0,0,0,0,9.14,2.2,2.2,0,0,0,.77,1,1.88,1.88,0,0,0,1.09.37,1.8,1.8,0,0,0,1.08-.38,2.25,2.25,0,0,0,.78-1,12,12,0,0,0,.71-4.58,11.8,11.8,0,0,0-.71-4.58,2.24,2.24,0,0,0-.77-.95A2,2,0,0,0,129.5,97.49Z"/><path class="cls-6" d="M144.26,105.62,147,96.93a2.2,2.2,0,0,0,.11-.59s0-.14,0-.27h4.15a2.22,2.22,0,0,0,0,.28,2.35,2.35,0,0,0,.09.58l2.41,8.69,2.63-8.69a1.52,1.52,0,0,0,.1-.47,2.32,2.32,0,0,0-.07-.39h2.31a3.63,3.63,0,0,0-.39.86L154.41,110a2.08,2.08,0,0,0-.11.57,1.16,1.16,0,0,0,0,.27h-3.91a1.55,1.55,0,0,0,0-.29,2,2,0,0,0-.09-.55l-2.55-9.21L145,110a3.07,3.07,0,0,0-.14.84h-3.68c0-.08,0-.13,0-.16a2.81,2.81,0,0,0-.14-.7l-3.72-13.1a3.27,3.27,0,0,0-.37-.84h4.86a1.55,1.55,0,0,0,0,.29,2.42,2.42,0,0,0,.09.57Z"/><path class="cls-6" d="M166,95.68a6.6,6.6,0,0,1,5.16,2,8.22,8.22,0,0,1,1.9,5.71,8,8,0,0,1-2.15,5.92,7.56,7.56,0,0,1-9.83,0,8.32,8.32,0,0,1-2.12-6,7.91,7.91,0,0,1,1.94-5.58,5.7,5.7,0,0,1,2.16-1.5A8.29,8.29,0,0,1,166,95.68Zm0,1.81a1.87,1.87,0,0,0-1.09.38,2.25,2.25,0,0,0-.78,1,15.27,15.27,0,0,0,0,9.14,2.27,2.27,0,0,0,.77,1,1.91,1.91,0,0,0,1.1.37,1.84,1.84,0,0,0,1.08-.38,2.3,2.3,0,0,0,.77-1,12,12,0,0,0,.71-4.58,11.8,11.8,0,0,0-.71-4.58,2.24,2.24,0,0,0-.77-.95A2,2,0,0,0,166,97.49Z"/><path class="cls-6" d="M193.09,109.64a8.36,8.36,0,0,1-4.65,1.51,5.1,5.1,0,0,1-3.64-1.3,4.73,4.73,0,0,1-1.56-3.63,4.9,4.9,0,0,1,1-3,4.57,4.57,0,0,1,1.24-1.16,20.18,20.18,0,0,1,2.44-1.26,14.09,14.09,0,0,1-1-1.92,3.92,3.92,0,0,1-.22-1.38,3.86,3.86,0,0,1,.43-1.81,3.71,3.71,0,0,1,1.2-1.38,5,5,0,0,1,3-.86,4,4,0,0,1,2.84,1,3.21,3.21,0,0,1,1,2.45,3.83,3.83,0,0,1-.55,2.13,6.62,6.62,0,0,1-2,1.78l2.81,4.29a12.9,12.9,0,0,0,2-3.38l1.66,2.13a22.66,22.66,0,0,1-2.5,3.11l1.95,3.07a5.26,5.26,0,0,0,.67.84h-5.39Zm-4.09-7a3.93,3.93,0,0,0-1.31,1.18,2.82,2.82,0,0,0-.41,1.55,3.35,3.35,0,0,0,.84,2.31,2.62,2.62,0,0,0,2,.94,2.92,2.92,0,0,0,2-.81Zm2.52-3.49a.92.92,0,0,1,.16-.12,4.25,4.25,0,0,0,1-1,1.94,1.94,0,0,0,.28-1.09,1.52,1.52,0,0,0-.35-1,1.16,1.16,0,0,0-1.75,0,1.44,1.44,0,0,0-.36,1A4.51,4.51,0,0,0,191.52,99.16Z"/><path class="cls-6" d="M223.26,93.11v3.17a10.52,10.52,0,0,0-2.32-1.47,5.48,5.48,0,0,0-2.14-.42,4.4,4.4,0,0,0-3.83,2,9.12,9.12,0,0,0-1.38,5.32,8.64,8.64,0,0,0,1.54,5.5,4.58,4.58,0,0,0,3.78,1.83,5.09,5.09,0,0,0,2.09-.44,10.13,10.13,0,0,0,2.26-1.52v3.09a14.48,14.48,0,0,1-2.58.82,13.87,13.87,0,0,1-2.64.23q-4.56,0-6.87-2.39t-2.39-7.2a10.36,10.36,0,0,1,1.05-5q2.38-4.3,8.68-4.31A12.81,12.81,0,0,1,223.26,93.11Z"/><path class="cls-6" d="M231.75,95.68a6.59,6.59,0,0,1,5.16,2,8.22,8.22,0,0,1,1.9,5.71,8,8,0,0,1-2.15,5.92,7.55,7.55,0,0,1-9.82,0,8.28,8.28,0,0,1-2.13-6,7.91,7.91,0,0,1,1.94-5.58,5.86,5.86,0,0,1,2.16-1.5A8.29,8.29,0,0,1,231.75,95.68Zm0,1.81a1.82,1.82,0,0,0-1.08.38,2.25,2.25,0,0,0-.78,1,11.73,11.73,0,0,0-.7,4.52,12,12,0,0,0,.71,4.62,2.27,2.27,0,0,0,.77,1,1.91,1.91,0,0,0,1.1.37,1.84,1.84,0,0,0,1.08-.38,2.3,2.3,0,0,0,.77-1,11.81,11.81,0,0,0,.71-4.58,11.61,11.61,0,0,0-.71-4.58,2.3,2.3,0,0,0-.76-.95A2,2,0,0,0,231.75,97.49Z"/><path class="cls-1" d="M21.42,130.72h-6V119.48h6v2H17.48v2.6h3.78v2H17.48v2.58h3.94Z"/><path class="cls-1" d="M28.67,128.09a2.73,2.73,0,0,1-.85,2,3.2,3.2,0,0,1-1,.64,3.06,3.06,0,0,1-1.17.24,3,3,0,0,1-2.17-.82,2.68,2.68,0,0,1-.88-2.09h2.06a1.15,1.15,0,0,0,.37.67.94.94,0,0,0,.7.27,1,1,0,0,0,.66-.21.7.7,0,0,0,.28-.6.86.86,0,0,0-.52-.74,7.68,7.68,0,0,0-.91-.35,4.53,4.53,0,0,1-1.66-.88,2.11,2.11,0,0,1-.68-1.61,2.36,2.36,0,0,1,.84-1.88,2.9,2.9,0,0,1,2-.73,2.74,2.74,0,0,1,1.9.76,2.42,2.42,0,0,1,.82,1.83h-2a.66.66,0,0,0-.24-.45.9.9,0,0,0-.53-.15.84.84,0,0,0-.56.18.67.67,0,0,0-.23.53.65.65,0,0,0,.41.58,6.48,6.48,0,0,0,.73.24,6.05,6.05,0,0,1,1.82.79A2.08,2.08,0,0,1,28.67,128.09Z"/><path class="cls-1" d="M33.33,124.1H32.11v6.62h-2V124.1h-1v-1.81h1v-2.81h2v2.81h1.22Z"/><path class="cls-1" d="M42.88,130.72H41v-1.14a3.2,3.2,0,0,1-1.26,1,3.7,3.7,0,0,1-1.63.38,3.86,3.86,0,0,1-1.74-.38,3.69,3.69,0,0,1-1.35-1A4.63,4.63,0,0,1,34,126.51a5,5,0,0,1,.26-1.64,4,4,0,0,1,.82-1.38A3.92,3.92,0,0,1,38.18,122,3.28,3.28,0,0,1,41,123.49v-1.2h1.87ZM41,126.5a2.49,2.49,0,0,0-.67-1.79,2.33,2.33,0,0,0-1.76-.7,2.38,2.38,0,0,0-1.82.73,2.54,2.54,0,0,0-.7,1.85,2.27,2.27,0,0,0,.73,1.73,2.42,2.42,0,0,0,1.76.7,2.38,2.38,0,0,0,1.78-.71A2.54,2.54,0,0,0,41,126.5Z"/><path class="cls-1" d="M47.94,124.1H46.72v6.62h-2V124.1h-1v-1.81h1v-2.81h2v2.81h1.22Z"/><path class="cls-1" d="M57.38,126.45c0,.15,0,.32,0,.52s-.05.34-.06.44H50.73a2.21,2.21,0,0,0,.83,1.17,2.34,2.34,0,0,0,1.38.44,2.41,2.41,0,0,0,1.89-.73h2.25a3.79,3.79,0,0,1-1.55,1.91A4.39,4.39,0,0,1,53,131a4.3,4.3,0,0,1-3.13-1.29,4.22,4.22,0,0,1-1.3-3.12,4.5,4.5,0,0,1,1.29-3.23A4.24,4.24,0,0,1,53.05,122a4.11,4.11,0,0,1,3.07,1.32A4.36,4.36,0,0,1,57.38,126.45Zm-2.05-.83a2.27,2.27,0,0,0-.87-1.19,2.58,2.58,0,0,0-2.85,0,2.13,2.13,0,0,0-.91,1.17Z"/><path class="cls-1" d="M70.05,127.44A3.36,3.36,0,0,1,69,130a3.57,3.57,0,0,1-2.57,1,3.65,3.65,0,0,1-2.55-1,3.16,3.16,0,0,1-1.08-2.44H65a1.26,1.26,0,0,0,.45,1,1.61,1.61,0,0,0,1.11.38,1.43,1.43,0,0,0,1-.41,1.27,1.27,0,0,0,.43-1,1.54,1.54,0,0,0-.63-1.29,4.8,4.8,0,0,0-1.33-.61,9.79,9.79,0,0,1-1-.37,3.26,3.26,0,0,1-1.8-2.83,3,3,0,0,1,1-2.28,3.23,3.23,0,0,1,2.34-.91,3.26,3.26,0,0,1,2.3.93,3,3,0,0,1,1,2.26H67.63a1.13,1.13,0,0,0-.36-.85,1.38,1.38,0,0,0-.9-.32,1,1,0,0,0-.8.34,1.17,1.17,0,0,0-.31.85,1.15,1.15,0,0,0,.46.91,3.05,3.05,0,0,0,1,.47l1.15.41a4.09,4.09,0,0,1,1,.62A3.09,3.09,0,0,1,70.05,127.44Z"/><path class="cls-1" d="M78.81,130.72H76.94v-.9a2.07,2.07,0,0,1-.88.88,2.67,2.67,0,0,1-1.29.29,3.51,3.51,0,0,1-1.44-.3,3.45,3.45,0,0,1-1.22-.85,2.61,2.61,0,0,1-.65-1.19,6.91,6.91,0,0,1-.15-1.59v-4.77h2v4.15a8.93,8.93,0,0,0,0,1,2.41,2.41,0,0,0,.22.75A1.5,1.5,0,0,0,75,129a1.54,1.54,0,0,0,1.23-.5,3.28,3.28,0,0,0,.52-2.08v-4.15h2Z"/><path class="cls-1" d="M84.28,124a1.91,1.91,0,0,0-1.23.4,1.21,1.21,0,0,0-.47.71,4.42,4.42,0,0,0-.11,1.08v4.54h-2v-8.43h1.84v.76a2.38,2.38,0,0,1,.79-.79,2.13,2.13,0,0,1,1-.24h.16Z"/><path class="cls-1" d="M92.9,122.29l-3.41,8.43H87.91l-3.4-8.43h2.24l2,5.55,1.93-5.55Z"/><path class="cls-1" d="M102.27,126.45a3.61,3.61,0,0,1,0,.52c0,.19,0,.34-.06.44H95.62a2.21,2.21,0,0,0,.83,1.17,2.34,2.34,0,0,0,1.38.44,2.41,2.41,0,0,0,1.89-.73H102a3.79,3.79,0,0,1-1.55,1.91,4.39,4.39,0,0,1-2.51.79,4.29,4.29,0,0,1-3.13-1.29,4.23,4.23,0,0,1-1.31-3.12,4.51,4.51,0,0,1,1.3-3.23A4.22,4.22,0,0,1,97.94,122a4.13,4.13,0,0,1,3.07,1.32A4.36,4.36,0,0,1,102.27,126.45Zm-2-.83a2.27,2.27,0,0,0-.87-1.19,2.58,2.58,0,0,0-2.85,0,2.13,2.13,0,0,0-.91,1.17Z"/><path class="cls-1" d="M111.41,122.29l-4.84,11.24H104.4l1.55-3.6-3.08-7.64h2.29l1.93,5.41,2-5.41Z"/><path class="cls-1" d="M121,126.53a4.22,4.22,0,0,1-1.33,3.15,4.33,4.33,0,0,1-3.19,1.31,4.51,4.51,0,0,1-4.44-4.46,4.47,4.47,0,0,1,4.54-4.51,4.23,4.23,0,0,1,3.14,1.32A4.46,4.46,0,0,1,121,126.53Zm-2,0a2.48,2.48,0,0,0-.72-1.78,2.35,2.35,0,0,0-1.76-.74,2.27,2.27,0,0,0-1.68.76,2.44,2.44,0,0,0-.74,1.76,2.4,2.4,0,0,0,.71,1.75,2.29,2.29,0,0,0,1.71.74,2.4,2.4,0,0,0,1.78-.71A2.44,2.44,0,0,0,119,126.53Z"/><path class="cls-1" d="M126,124a1.91,1.91,0,0,0-1.23.4,1.21,1.21,0,0,0-.47.71,4.42,4.42,0,0,0-.11,1.08v4.54h-2v-8.43H124v.76a2.38,2.38,0,0,1,.79-.79,2.13,2.13,0,0,1,1-.24H126Z"/><path class="cls-1" d="M132.6,128.09a2.73,2.73,0,0,1-.85,2,3.2,3.2,0,0,1-1,.64,3,3,0,0,1-1.17.24,3,3,0,0,1-2.17-.82,2.68,2.68,0,0,1-.88-2.09h2.06a1.15,1.15,0,0,0,.37.67.94.94,0,0,0,.7.27,1,1,0,0,0,.66-.21.7.7,0,0,0,.28-.6.84.84,0,0,0-.52-.74,7.68,7.68,0,0,0-.91-.35,4.39,4.39,0,0,1-1.65-.88,2.09,2.09,0,0,1-.69-1.61,2.36,2.36,0,0,1,.84-1.88,2.9,2.9,0,0,1,2-.73,2.74,2.74,0,0,1,1.9.76,2.42,2.42,0,0,1,.82,1.83h-2a.66.66,0,0,0-.24-.45.88.88,0,0,0-.53-.15.84.84,0,0,0-.56.18.67.67,0,0,0-.23.53.65.65,0,0,0,.41.58,7.38,7.38,0,0,0,.73.24,6.05,6.05,0,0,1,1.82.79A2.08,2.08,0,0,1,132.6,128.09Z"/><path class="cls-1" d="M146.93,130.72h-1.87v-1.14a3.14,3.14,0,0,1-1.26,1,3.66,3.66,0,0,1-1.62.38,3.9,3.9,0,0,1-1.75-.38,3.86,3.86,0,0,1-1.35-1,4.63,4.63,0,0,1-1.05-3.07,5,5,0,0,1,.26-1.64,4.31,4.31,0,0,1,.82-1.38,3.94,3.94,0,0,1,3.13-1.47,3.26,3.26,0,0,1,2.82,1.47v-1.2h1.87ZM145,126.5a2.52,2.52,0,0,0-.66-1.79,2.36,2.36,0,0,0-1.76-.7,2.4,2.4,0,0,0-1.83.73,2.58,2.58,0,0,0-.7,1.85,2.31,2.31,0,0,0,.73,1.73,2.45,2.45,0,0,0,1.76.7,2.36,2.36,0,0,0,1.78-.71A2.5,2.5,0,0,0,145,126.5Z"/><path class="cls-1" d="M155.94,130.72h-2v-4q0-.8,0-1.05a2.36,2.36,0,0,0-.3-1,1.45,1.45,0,0,0-.58-.55,1.71,1.71,0,0,0-.77-.18,1.69,1.69,0,0,0-.82.2,1.38,1.38,0,0,0-.58.5,1.93,1.93,0,0,0-.25.71,5.36,5.36,0,0,0-.1,1.23v4.07h-2v-8.43h1.87v.78a2.43,2.43,0,0,1,1-.79,3.35,3.35,0,0,1,2.61,0,3.22,3.22,0,0,1,1.09.78l.23.25a3.4,3.4,0,0,1,.58,1.46,10.46,10.46,0,0,1,.09,1.58Z"/><path class="cls-1" d="M166.1,130.72h-1.87v-1.14a3,3,0,0,1-1.22,1,3.5,3.5,0,0,1-1.61.38,3.77,3.77,0,0,1-3-1.34,4.45,4.45,0,0,1-1.22-3.1,4.71,4.71,0,0,1,1.05-3.12,3.92,3.92,0,0,1,3.19-1.41,3.74,3.74,0,0,1,1.44.29,3.17,3.17,0,0,1,1.15.86v-3.69h2Zm-1.9-4.22a2.35,2.35,0,0,0-.75-1.76,2.41,2.41,0,0,0-1.77-.73,2.49,2.49,0,0,0-2.43,2.44,2.53,2.53,0,0,0,.71,1.81,2.27,2.27,0,0,0,1.75.76,2.4,2.4,0,0,0,1.76-.74A2.45,2.45,0,0,0,164.2,126.5Z"/><path class="cls-1" d="M182.06,119.48l-4.36,11.24H176l-4.35-11.24h2.18l3,8.55,3-8.55Z"/><path class="cls-1" d="M188.94,130.72h-1.87v-1.14a3.2,3.2,0,0,1-1.26,1,3.7,3.7,0,0,1-1.63.38,3.86,3.86,0,0,1-1.74-.38,3.69,3.69,0,0,1-1.35-1,4.63,4.63,0,0,1-1.05-3.07,5,5,0,0,1,.26-1.64,4,4,0,0,1,.82-1.38,3.92,3.92,0,0,1,3.12-1.47,3.28,3.28,0,0,1,2.83,1.47v-1.2h1.87ZM187,126.5a2.49,2.49,0,0,0-.67-1.79,2.34,2.34,0,0,0-1.76-.7,2.38,2.38,0,0,0-1.82.73,2.54,2.54,0,0,0-.7,1.85,2.27,2.27,0,0,0,.73,1.73,2.42,2.42,0,0,0,1.76.7,2.38,2.38,0,0,0,1.78-.71A2.54,2.54,0,0,0,187,126.5Z"/><path class="cls-1" d="M192.48,130.72h-2V119.48h2Z"/><path class="cls-1" d="M201.6,130.72h-1.86v-.9a2.15,2.15,0,0,1-.89.88,2.67,2.67,0,0,1-1.29.29,3.69,3.69,0,0,1-2.66-1.15,2.61,2.61,0,0,1-.65-1.19,6.91,6.91,0,0,1-.15-1.59v-4.77h2v4.15a8.93,8.93,0,0,0,0,1,2.71,2.71,0,0,0,.22.75,1.5,1.5,0,0,0,1.44.86,1.53,1.53,0,0,0,1.23-.5,3.28,3.28,0,0,0,.52-2.08v-4.15h2Z"/><path class="cls-1" d="M211.67,126.45a3.61,3.61,0,0,1,0,.52c0,.19-.05.34-.06.44H205a2.21,2.21,0,0,0,.83,1.17,2.34,2.34,0,0,0,1.38.44,2.41,2.41,0,0,0,1.89-.73h2.25a3.79,3.79,0,0,1-1.55,1.91,4.39,4.39,0,0,1-2.51.79,4.29,4.29,0,0,1-3.13-1.29,4.23,4.23,0,0,1-1.31-3.12,4.47,4.47,0,0,1,1.3-3.23,4.22,4.22,0,0,1,3.17-1.33,4.13,4.13,0,0,1,3.07,1.32A4.36,4.36,0,0,1,211.67,126.45Zm-2-.83a2.27,2.27,0,0,0-.87-1.19,2.58,2.58,0,0,0-2.85,0,2.13,2.13,0,0,0-.91,1.17Z"/><path class="cls-1" d="M216.82,124a1.91,1.91,0,0,0-1.23.4,1.26,1.26,0,0,0-.47.71,4.42,4.42,0,0,0-.11,1.08v4.54h-2v-8.43h1.84v.76a2.48,2.48,0,0,1,.79-.79,2.14,2.14,0,0,1,1-.24h.15Z"/><path class="cls-1" d="M223.41,128.09a2.69,2.69,0,0,1-.85,2,3.37,3.37,0,0,1-2.19.88,3,3,0,0,1-2.17-.82,2.68,2.68,0,0,1-.88-2.09h2.07a1.19,1.19,0,0,0,.36.67,1,1,0,0,0,.7.27,1.09,1.09,0,0,0,.67-.21.72.72,0,0,0,.27-.6.84.84,0,0,0-.52-.74,8,8,0,0,0-.9-.35,4.44,4.44,0,0,1-1.66-.88,2.09,2.09,0,0,1-.69-1.61,2.36,2.36,0,0,1,.84-1.88,2.92,2.92,0,0,1,2-.73,2.74,2.74,0,0,1,1.9.76,2.42,2.42,0,0,1,.82,1.83h-2a.66.66,0,0,0-.24-.45.92.92,0,0,0-.53-.15.85.85,0,0,0-.57.18.67.67,0,0,0-.22.53.64.64,0,0,0,.4.58,7.38,7.38,0,0,0,.73.24,6.05,6.05,0,0,1,1.82.79A2.08,2.08,0,0,1,223.41,128.09Z"/></g></g></g></svg>