<svg xmlns="http://www.w3.org/2000/svg" viewBox="0 0 168.02 130.19"><defs><style>.cls-1{fill:gray;stroke:gray;stroke-miterlimit:10;stroke-width:4px;}</style></defs><g id="Layer_2" data-name="Layer 2"><g id="Isolation_Mode" data-name="Isolation Mode"><path class="cls-1" d="M91.6,114.85C88.3,123.2,83,128.2,74.19,128.19s-14.1-5-17.26-13.34H51.51q-21.24,0-42.47,0c-5,0-7.2-1.38-7-4.29.16-2.69,2.09-3.74,7-3.75H56.77c3.1-8,8.4-13.43,17.33-13.49s14.33,5.25,17.61,13.49h67.46c4.79,0,6.8,1.15,6.85,3.89s-2,4.14-6.69,4.15q-30.72,0-61.45,0Zm-7.87-4.09a9.76,9.76,0,0,0-9.61-9.47,9.4,9.4,0,0,0-9.23,9.23,9.29,9.29,0,0,0,9.26,9.63A9.45,9.45,0,0,0,83.73,110.76Z"/><path class="cls-1" d="M32.39,23.38H7c-2.59,0-4.68-.79-5-3.72-.27-2.47,1.61-4.2,5-4.28,6-.14,12,0,18,0h7.2C35.55,7.49,40.72,2,49.73,2c8.76,0,14.11,5,17.36,13.32h90.76c1.66,0,3.56-.33,4.91.36s3.05,2.51,3,3.79-1.82,2.9-3.22,3.64c-1.19.63-2.93.25-4.42.25h-91c-3.33,8.45-8.88,13.8-18.07,13.48C40.66,36.57,35.41,31.56,32.39,23.38ZM59.1,19.22A9.25,9.25,0,0,0,49.4,10a9.47,9.47,0,0,0-9.11,9.83,9.6,9.6,0,0,0,9.51,9A9.4,9.4,0,0,0,59.1,19.22Z"/><path class="cls-1" d="M110.19,61.05c3-8.39,8.5-13.32,17.19-13.37s14.2,4.83,17.34,13.37h9.73c1.83,0,3.67,0,5.5,0,4.34.1,6.19,1.4,6.06,4.2-.11,2.56-1.89,3.78-5.9,3.83-5,.07-10,0-15.16,0-3.41,8.32-8.91,13.83-18.41,13.34-8.27-.43-13.37-5.22-16.35-13.34H10.56a41.53,41.53,0,0,1-5-.15c-2.3-.28-3.93-1.81-3.41-4a6.35,6.35,0,0,1,3.33-3.61c1.39-.64,3.27-.28,4.93-.28h99.77Zm18-5.37A9.41,9.41,0,1,0,127,74.46a9.41,9.41,0,0,0,1.28-18.78Z"/></g></g></svg>