<svg xmlns="http://www.w3.org/2000/svg" viewBox="0 0 140.74 141.2"><defs><style>.cls-1{fill:gray;}</style></defs><g id="Layer_2" data-name="Layer 2"><g id="Isolation_Mode" data-name="Isolation Mode"><path class="cls-1" d="M140.73,70.32A70.37,70.37,0,1,1,70.59,0C109.38.06,140.89,31.76,140.73,70.32Zm-139,.14a68.62,68.62,0,1,0,69-68.64C32.91,1.54,1.93,32.44,1.77,70.46Z"/><path class="cls-1" d="M99.41,108.07c.22.73.33,1.11.45,1.48,1.44,4.46,1.71,3.19-2.25,5.64a45.88,45.88,0,0,1-4.84,2.7,2.05,2.05,0,0,1-1.91-.34c-1.87-3.11-4.23-3.64-7.42-2a12.64,12.64,0,0,1-4.4,1.08c-1.72.18-2.34,1.08-2.62,2.65C75.75,123,75.7,123,72,123c-1.78,0-3.56,0-5.34,0-1.31,0-2-.54-2-1.84,0-3.14-1.45-4.72-4.7-5a21,21,0,0,1-5.28-1.61,2.2,2.2,0,0,0-2.89.7c-3,3.45-1.81,3.87-6.39,1.19-1.48-.86-3-1.74-4.46-2.57-1-.54-1.36-1.3-.79-2.28,1.79-3.06,1-5.3-1.86-7.22a14,14,0,0,1-3.15-3.28c-1-1.34-2.05-1.74-3.55-1-.53.27-1.13.39-1.67.64-1.32.61-2.19.28-2.89-1-1.14-2.16-2.35-4.29-3.64-6.36-.66-1.06-.61-1.82.43-2.5a3.81,3.81,0,0,0,.32-.24c3-2.46,3-2.45,1.82-6.24a34.76,34.76,0,0,1-1.27-5.19,2.67,2.67,0,0,0-2.51-2.53c-4.09-.81-3.87.05-3.86-4.73,0-1.72,0-3.44,0-5.15,0-1.18.38-2,1.65-2,3.32,0,5-1.57,5.2-5a19.17,19.17,0,0,1,1.49-5.12,2.33,2.33,0,0,0-.85-2.91c-3.08-2.7-3.05-2.75-1-6.4.81-1.44,1.74-2.82,2.48-4.28.63-1.23,1.39-1.31,2.58-.87,4,1.48,4,1.41,6.82-1.82A28.8,28.8,0,0,1,40.24,35a2.55,2.55,0,0,0,.81-3.28c-1.31-3.66-1.25-3.69,2.08-5.65,1.53-.91,3.11-1.74,4.62-2.69,1.14-.71,1.89-.4,2.7.57,2.6,3.15,2.62,3.1,6.42,1.93A42,42,0,0,1,62,24.59a2.56,2.56,0,0,0,2.4-2.36c.84-4.38,0-3.81,4.68-3.86,1.64,0,3.3.07,4.94,0,1.41-.08,2.21.5,2.23,1.86,0,3.12,1.54,4.52,4.64,4.81a22.23,22.23,0,0,1,5.5,1.58,2.07,2.07,0,0,0,2.73-.7c2.68-3.3,2.71-3.27,6.36-1.13,1.43.84,2.83,1.71,4.28,2.49a1.71,1.71,0,0,1,.9,2.46c-.13.3-.21.62-.33.93-1.11,3-1,2.92,1.24,5a53.4,53.4,0,0,1,4.63,4.88,2.12,2.12,0,0,0,2.72.72c4.52-1.61,3.59-2,6,2.14.82,1.43,1.56,2.92,2.51,4.26s.59,2.15-.59,3c-.49.33-.92.75-1.4,1.11a2.61,2.61,0,0,0-.9,3.43,50.69,50.69,0,0,1,1.87,7.27,2.16,2.16,0,0,0,1.92,2.08c4.55.94,4,0,4.09,5.16V71c0,4.7,0,4.67-4.52,6a2.38,2.38,0,0,0-1.36,1.4c-.85,2.84-1.65,5.7-2.27,8.6a2.87,2.87,0,0,0,.83,2.27c3.79,3.21,3.27,2.18,1,6.46-.75,1.4-1.65,2.71-2.41,4.1-.66,1.21-1.61,1.61-2.78.95-2.65-1.52-4.51-.88-6.25,1.6-1.12,1.59-2.85,2.73-4.25,4.13A8.19,8.19,0,0,0,99.41,108.07ZM35.49,70.87C36,82.49,40.63,91.93,50.1,99c15.6,11.55,38.56,7.6,49.28-8.57A35.18,35.18,0,0,0,85.89,39.12a6.87,6.87,0,0,1-1.78-1.2,69.77,69.77,0,0,1-5.61-6.07c-2-2.67-4.78-3-7.71-3.23-6.24-.53-9.25,4.15-12.88,7.87a15.45,15.45,0,0,1-3.16,2.8C42.45,46.22,36,56.67,35.49,70.87Z"/><path class="cls-1" d="M75.71,102.88V99.94c-1.71.44-4-.46-4.23,2.55,0,.35-1.23.85-1.87.84a31.38,31.38,0,0,1-21.48-8.74c-.44-.41-.83-.86-1.26-1.27-3.71-3.5-6.14-7.4-4.19-12.79a12.83,12.83,0,0,0,.49-2.92,7.35,7.35,0,0,1,5.48-6.54c3.52-1.14,7-2.51,10.38-3.9a7.68,7.68,0,0,0,2.53-1.79,2.2,2.2,0,0,0,.15-2.88c-1.33-2.26-2.51-4.61-3.61-7a6.05,6.05,0,0,1-.4-2.72,4.83,4.83,0,0,1,.76-1.64c.62.45,1.68.82,1.77,1.36.61,3.57,2.83,6.33,4.48,9.38A6.64,6.64,0,0,0,76.17,62c1.66-2.89,3.74-5.59,4.3-9,.26-1.58,1.16-2.12,3.16-1.54a55.73,55.73,0,0,1-1.57,6.17,32.47,32.47,0,0,1-2.52,4.47c-1.05,1.83-.81,3.2,1,4.33a17.49,17.49,0,0,0,3.24,1.45c3.2,1.24,6.42,2.43,9.63,3.64a6.12,6.12,0,0,1,4.14,4.9c.54,3.18,1,6.4,1.38,9.6a2.52,2.52,0,0,1-.31,1.5,31.55,31.55,0,0,1-9.53,10.18,4.58,4.58,0,0,1-1.14.27V94.51c0-1.45.08-2.91,0-4.36-.33-5.24-.83-10.48-1-15.73-.18-4.29-.32-4.6-5.22-5.32V79.32c0,2.85,0,2.85,2.38,4.57-1.25,0-2.5-.06-3.74,0a6.88,6.88,0,0,0-1.67.61,5.72,5.72,0,0,0,1.75.73,47,47,0,0,0,4.75,0c1.19,0,1.66.51,1.65,1.67,0,3.63,0,7.27,0,10.9a2.09,2.09,0,0,1-.65,1.54A23.62,23.62,0,0,1,75.71,102.88ZM73.88,72.24c-2.45,2.26-2.73,3.83-1.3,6.38a8.43,8.43,0,0,1,.67,1.21c1,2.5,0,4.06-2.66,4.06-3.09,0-6.19,0-9.29,0-1.38,0-1.88-.51-1.87-1.85,0-3.24,0-6.47,0-9.7V68.8c-1.23.4-2,.72-2.83.91a2.64,2.64,0,0,0-2.35,3.2,49.76,49.76,0,0,1,0,7.12c-.13,1.84.23,3,2.3,3.16,0,0,.07.23.15.55a9.21,9.21,0,0,0-1.69.18,14.07,14.07,0,0,0-1.76.71,6.41,6.41,0,0,0,1.84.64c5.08,0,10.15.07,15.23,0,1.6,0,2.92.07,2.81,2.13,3.72-.19,3.78-.19,4.1-3.51a8.22,8.22,0,0,1,2.24-5.49c1.5-1.51,1-4.1-.79-5.56-.94,1.19.76,3.87-2.39,3.88C72.78,76.73,74.43,74,73.88,72.24ZM71.49,86.85c-1.76,1.41-3,2.55-4.4,3.49-1.84,1.23-3.17,5.24-2.15,7.15a2.31,2.31,0,0,0,1.17.89,13.61,13.61,0,0,0,8.12.73c2-.4,3.9-.93,4.07-3.5a16.44,16.44,0,0,1,.48-2.48c1.08-4.49-.08-5.65-4.53-4.44C72.87,89.06,71.71,89.29,71.49,86.85Zm-8-18.74c3.52,3.4,10.93,3.33,14-.11l-1.43-2a10.49,10.49,0,0,1-11.14,0ZM51.06,86.58l-.09.58,15.08,2.46c-.58-.59-1-1.34-1.53-1.49a25.25,25.25,0,0,0-3.9-.54C57.43,87.24,54.25,86.91,51.06,86.58Zm31.54.34,0,.7a2.22,2.22,0,0,0,2.65-.07l0-.63Z"/><path class="cls-1" d="M76.06,40.55l1.6-6.76a13.13,13.13,0,0,1,5.68,7.41c.76,2.41,1.35,4.89,1.9,7.36.22.95-.28,1.44-1.38,1.7-7,1.7-14.2.87-21.31,1a26.72,26.72,0,0,1-6.06-1.13c-.3-.07-.61-.66-.68-1-.74-4,3.73-13,7.56-15l1.3,5L65,39c-.16-1.7-.32-3.4-.46-5.1a2.3,2.3,0,0,1,1.83-2.64,13.22,13.22,0,0,1,8.34,0A2.39,2.39,0,0,1,76.53,34c-.23,2.15-.5,4.31-.75,6.46Z"/></g></g></svg>