<svg xmlns="http://www.w3.org/2000/svg" viewBox="0 0 97.86 97.9"><defs><style>.cls-1{fill:#fff;}</style></defs><g id="Layer_2" data-name="Layer 2"><g id="Isolation_Mode" data-name="Isolation Mode"><path class="cls-1" d="M0,71V26.83a10.31,10.31,0,0,1,.2-1.11c.71-2.67,1.07-5.5,2.21-8C7.67,6.42,16.66.34,29.18.12c13.15-.23,26.3-.07,39.45,0a28,28,0,0,1,16.6,5.19c8.38,6,12.59,14.22,12.62,24.53,0,12.8,0,25.59,0,38.39a27.65,27.65,0,0,1-1.09,8.3Q91.43,93.61,73.9,97.38c-1.18.25-2.39.35-3.58.52H27.52c-1-.13-2-.24-2.93-.41A28.86,28.86,0,0,1,3.19,82,31.38,31.38,0,0,1,0,71ZM48.92,10v0c-6.34,0-12.68,0-19,0a22.56,22.56,0,0,0-5.2.53c-9,2.21-14.78,9.63-14.81,19.1-.05,12.92,0,25.85,0,38.77a18.61,18.61,0,0,0,1.7,8.26C15.22,84.15,21.28,88,29.62,88c12.86.06,25.73,0,38.59,0a18.73,18.73,0,0,0,8.35-1.71C84,82.71,87.89,76.69,87.94,68.4q.11-19.4,0-38.78a22.65,22.65,0,0,0-.7-5.56A18.9,18.9,0,0,0,69.65,10C62.74,9.89,55.83,10,48.92,10Z"/><path class="cls-1" d="M74.22,49a25.31,25.31,0,1,1-25.3-25.35A25.3,25.3,0,0,1,74.22,49ZM48.94,33.56A15.44,15.44,0,1,0,64.35,49.05,15.5,15.5,0,0,0,48.94,33.56Z"/><path class="cls-1" d="M74.24,29.94a6.06,6.06,0,1,1,6.08-6A6.05,6.05,0,0,1,74.24,29.94Z"/></g></g></svg>