<svg xmlns="http://www.w3.org/2000/svg" viewBox="0 0 83.41 577.38"><defs><style>.cls-1{fill:#1a1a1a;}</style></defs><g id="Layer_2" data-name="Layer 2"><g id="Layer_1-2" data-name="Layer 1"><path class="cls-1" d="M60.41,168.37V409a1.9,1.9,0,0,1-3.76.41L30.58,289.09a1.8,1.8,0,0,1,0-.8L56.65,168A1.9,1.9,0,0,1,60.41,168.37Z"/><path class="cls-1" d="M73.18,3.91.16,287.39a5.44,5.44,0,0,0,0,2.6l73,283.49c1.53,5.91,10.23,4.81,10.23-1.3V5.2C83.41-.9,74.71-2,73.18,3.91ZM70.41,490.22a3.47,3.47,0,0,1-6.84.79L16,289.49a3.6,3.6,0,0,1,0-1.6L63.57,86.37a3.47,3.47,0,0,1,6.84.8Z"/></g></g></svg>