<svg xmlns="http://www.w3.org/2000/svg" viewBox="0 0 124.33 112.21"><defs><style>.cls-1{fill:gray;}</style></defs><g id="Layer_2" data-name="Layer 2"><g id="Layer_1-2" data-name="Layer 1"><path class="cls-1" d="M124.33,54.26c-2.83,5.83-4.8,6.8-12.18,5.87v46.42H78.74c0-.22-.19-.48-.14-.69,1.11-4.9,0-4.23,5.27-4.25,7.37,0,14.74,0,22.43,0,0-1,.12-1.95.12-2.87,0-13.07,0-26.15,0-39.23a4.35,4.35,0,0,0-1.6-3.87q-21-16.87-42-33.83a2.91,2.91,0,0,0-.74-.24c-8.73,6.79-17.61,13.65-26.43,20.58-5.45,4.28-10.77,8.72-16.2,13a5.34,5.34,0,0,0-2.18,4.69c.1,12.9,0,25.8,0,38.71v3a60.23,60.23,0,0,0,6.6,0c2.48-.28,4,.46,4.46,3a13.43,13.43,0,0,0,.71,1.95H11.76V59.67c-5.63,1.48-9.69,0-11.76-5.41V50.57c1.36-2,2.38-4.34,4.14-5.82C9.84,40,15.83,35.54,21.69,31Q41.42,15.49,61.11,0h1.58q27.59,21.45,55.18,42.88c2.88,2.23,5.55,4.5,6.46,8.22Z"/><path class="cls-1" d="M62.16,112.21c-3.15-2.94-3.53-6.33-2.37-10.44,1.3-4.61,1.94-9.42,2.79-14.16.21-1.16,1-2.67-1.16-3.06-.16,0-.4-.7-.29-.91,1.17-2.16-.57-3.12-1.71-4.37a15.57,15.57,0,0,1-1.89-17.88A15.24,15.24,0,0,1,74.09,54c.25,3.09-.52,4.26-3.37,5a5.58,5.58,0,0,0-4.17,5.17A5.2,5.2,0,0,0,70,69.61a5.06,5.06,0,0,0,6.21-1.45c2.28-2.84,4.27-5.92,6.37-8.89,4.37,3.37,6.23,14-.71,20.69a13.71,13.71,0,0,1-5.48,3.47c-3.86,1.06-5.43,3.27-5.24,7.13A2.4,2.4,0,0,1,70,92.23c-1.57,1-2.18,1.86-.7,3.52a2.55,2.55,0,0,1-.17,2.48c-2.76,2.21-2.82,2.14-.51,5l-2.58,2c1.72,3.13,1.47,4-1.73,5.79a15.89,15.89,0,0,0-1.63,1.2Z"/><path class="cls-1" d="M55.31,82.67a20.11,20.11,0,0,0-.69,2.26,2.57,2.57,0,0,1-2.32,2.35c-1.68.29-2.4,1.36-1.26,3s.34,2.51-1.24,2.79c-2.21.39-2.85,1.26-1.72,3.38,1.4,2.61-1.52,1.76-2.07,2.46-.08,1.47.35,3.28-.31,3.88-1.38,1.25-3.34,1.85-4.84,2.6-3-3.35-2.94-6.3-1-9.84,2.68-5,4.81-10.29,7.06-15.51a6.31,6.31,0,0,0-.09-2.65c0-.24-.29-.57-.21-.7,1.78-2.6-.44-4.17-1.55-6-1.49-2.41-3.8-4.52-2.71-7.82,1.46-4.44,3.71-8.36,7.89-10.72a4.92,4.92,0,0,1,3.66,0,32.88,32.88,0,0,1,4.7,2.54c-1.76,3.08-3.94,5.92-5.1,9.13-2.14,6,.22,11.31,3.46,16.33a8,8,0,0,1,.61,2.06Z"/><path class="cls-1" d="M67.09,41a13.78,13.78,0,0,1,13,10.65,13.44,13.44,0,0,1-7.76,14.86c-.74.32-1.83-.18-2.75-.31a8.39,8.39,0,0,1,1-2.61,18.29,18.29,0,0,1,2.5-1.87c2.91-2.52,4.6-5.58,3.46-9.52a9.92,9.92,0,0,0-8-7.46c-4.1-.83-7.14.89-9.48,4.15-.11.14-.19.29-.29.44-.83,1.25-1.48,3.35-3.45,1.95-1.66-1.18-.32-2.71.45-3.93C58.53,43,62.24,40.94,67.09,41Z"/><path class="cls-1" d="M94.83,4H112V27.34c-.57-.3-1.17-.56-1.7-.91-4.62-3-9.27-6-13.8-9.16a4.26,4.26,0,0,1-1.6-2.86C94.71,10.93,94.83,7.44,94.83,4Z"/></g></g></svg>