<svg xmlns="http://www.w3.org/2000/svg" viewBox="0 0 109.23 77.95"><defs><style>.cls-1{fill:#fff;}</style></defs><g id="Layer_2" data-name="Layer 2"><g id="Isolation_Mode" data-name="Isolation Mode"><path class="cls-1" d="M2.2,1.83C4.24,1.22,6.28.09,8.32.08q46.3-.16,92.6,0c2.06,0,4.12,1.1,6.72,1.84-1,1.18-1.49,1.74-2,2.23Q87.27,21.73,68.85,39.29a84.44,84.44,0,0,1-8,6.83c-4.51,3.3-7.71,3.32-12.2,0a87.3,87.3,0,0,1-8.26-7C28,27.49,15.78,15.75,3.5,4.05a11,11,0,0,0-1.35-1Z"/><path class="cls-1" d="M2.26,75.05C14,63.88,25.71,52.71,37.6,41.36c1.48,1.32,2.81,2.59,4.23,3.74,2,1.62,4,3.3,6.19,4.71,4.39,2.87,9,3,13.3,0,3.56-2.47,6.87-5.31,10.59-8.23l35.25,33.61c-2.11,2.45-4.69,2.75-7.43,2.75q-39.79,0-79.58,0c-3.89,0-7.8.19-11.68-.08-2.09-.15-4.13-1.08-6.2-1.66Z"/><path class="cls-1" d="M109.23,72.44,74.09,38.94c11.67-11.12,23.12-22,35.14-33.5Z"/><path class="cls-1" d="M0,71.57V5.37L35.23,38.94.64,71.93Z"/></g></g></svg>