<svg xmlns="http://www.w3.org/2000/svg" viewBox="0 0 136.77 136.74"><defs><style>.cls-1{fill:gray;}</style></defs><g id="Layer_2" data-name="Layer 2"><g id="Layer_1-2" data-name="Layer 1"><path class="cls-1" d="M0,56.09a3.85,3.85,0,0,1,3.87-2c4.72.09,9.44,0,14.15,0,.66,0,1.13,0,1.42-.82,1.2-3.25,2.49-6.45,3.75-9.67l.58-.29a6.08,6.08,0,0,1-1.26-.75Q17.38,37.56,12.3,32.44c-1.56-1.58-1.58-3.09,0-4.65Q20,20,27.85,12.22c1.5-1.49,3-1.47,4.56,0q5.12,5.07,10.19,10.2a4.63,4.63,0,0,1,.65.9c3.63-1.42,6.91-2.67,10.15-4a1.72,1.72,0,0,0,.73-1.28c0-4.81,0-9.61,0-14.42C54.16.9,55.08,0,57.86,0H79c2.74,0,3.65.92,3.65,3.71V18c0,.64,0,1.13.79,1.43,3.24,1.2,6.45,2.5,9.67,3.76l.32.63a5.73,5.73,0,0,1,.72-1.29q5-5.07,10.1-10.11c1.74-1.74,3.17-1.74,4.94,0q7.6,7.59,15.2,15.2c1.75,1.76,1.74,3.19,0,4.94-3.67,3.68-7.36,7.36-10.86,10.85,1.35,3.47,2.62,6.79,4,10.06a1.68,1.68,0,0,0,1.33.64c4.76.05,9.52,0,14.28,0,2.79,0,3.69.91,3.7,3.67q0,10.6,0,21.22c0,2.59-.95,3.55-3.54,3.55-4.8,0-9.61,0-14.42,0-.93,0-1.26.31-1.57,1.16-1.17,3.16-2.46,6.27-3.79,9.6,3.38,3.36,7,6.9,10.51,10.45,2.29,2.28,2.29,3.44,0,5.7l-14.44,14.44c-2.3,2.3-3.44,2.31-5.7,0L93.29,113.39l-10.68,4.44v10.91c0,1.38-.08,2.76,0,4.13a3.68,3.68,0,0,1-2,3.87H56.1a3.82,3.82,0,0,1-2-3.87c.08-4.71,0-9.42,0-14.14a1.7,1.7,0,0,0-.67-1.31c-3.27-1.36-6.58-2.62-10-4-3.54,3.55-7.24,7.27-11,11-1.62,1.62-3.11,1.61-4.74,0q-7.66-7.62-15.29-15.28c-1.76-1.76-1.77-3.19,0-4.93q5-5.06,10.11-10.09a5.92,5.92,0,0,1,1.28-.73l-.61-.31c-1.26-3.22-2.56-6.42-3.76-9.66-.29-.8-.77-.81-1.42-.81-4.71,0-9.43,0-14.14,0a3.84,3.84,0,0,1-3.87-2Zm30.46,62.74a6.45,6.45,0,0,1,.75-1.18Q36,112.82,40.84,108c1.4-1.4,2.48-1.56,4.17-.57a46.92,46.92,0,0,0,12.27,5.08c1.89.48,2.55,1.4,2.55,3.36q0,6.81,0,13.62V131H76.93V129.4c0-4.54,0-9.08,0-13.62,0-1.76.65-2.73,2.28-3.15a49.31,49.31,0,0,0,12.88-5.36,2.68,2.68,0,0,1,3.54.45c1,1,2,2,3,3l7.79,7.85,12.11-12.08c-.26-.27-.58-.63-.92-1-3.18-3.19-6.36-6.36-9.53-9.55-1.5-1.5-1.64-2.53-.56-4.38a45.76,45.76,0,0,0,5-12c.49-2,1.41-2.64,3.43-2.64,4.54,0,9.08,0,13.62,0H131V59.83H116c-2.12,0-3-.66-3.52-2.7a45.77,45.77,0,0,0-4.91-11.91c-1.17-2-1-2.93.63-4.59,3.15-3.15,6.29-6.3,9.46-9.43a4.88,4.88,0,0,1,1.07-.67L106.44,18.14C103,21.61,99.5,25.15,96,28.68c-1.47,1.47-2.52,1.62-4.28.58a45.33,45.33,0,0,0-12.15-5c-2-.49-2.61-1.4-2.62-3.45v-15H59.84V7.27q0,6.75,0,13.48c0,2.12-.66,3-2.71,3.51a45.8,45.8,0,0,0-11.91,4.92c-1.93,1.13-2.93,1-4.5-.57l-9.54-9.54-.82-.78-12.07,12c.19.2.49.53.8.84,3.24,3.24,6.5,6.47,9.73,9.73,1.29,1.3,1.47,2.43.57,4a47.17,47.17,0,0,0-5.2,12.51c-.45,1.79-1.39,2.45-3.3,2.45H5.77V76.92H7.31c4.5,0,9,0,13.49,0,2,0,2.95.67,3.44,2.63a45.82,45.82,0,0,0,5,12.15c1,1.74.87,2.8-.6,4.27-3.2,3.22-6.41,6.42-9.62,9.64-.33.33-.65.68-.87.91Z"/><path class="cls-1" d="M42.42,69.78l-3.07,3.35L35.27,69a8.68,8.68,0,0,1,.59-.65Q50.92,53.32,66,38.27c1.65-1.65,3.13-1.67,4.74-.07Q86,53.44,101.23,68.69c.12.13.23.27.27.32l-4,3.93-3.09-3.22-.36.15v26.2c0,2.68-.93,3.61-3.61,3.61H46.35c-2.67,0-3.61-.94-3.61-3.61V69.93Zm6.08-4.3V93.91H57V92.35q0-8.8,0-17.62c0-2.48,1-3.48,3.49-3.48H76.21c2.63,0,3.59,1,3.59,3.66,0,5.83,0,11.66,0,17.48v1.55h8.48c0-.42.06-.76.06-1.11,0-9.3,0-18.6,0-27.89a2.88,2.88,0,0,0-.79-1.83q-9.1-9.21-18.29-18.33c-.27-.28-.58-.51-.69-.61C63.27,49.43,58.1,54.6,52.85,59.83H79.71v5.65ZM62.8,77V93.9H74V77Z"/></g></g></svg>