<svg xmlns="http://www.w3.org/2000/svg" viewBox="0 0 148.12 147.96"><defs><style>.cls-1{fill:gray;}</style></defs><g id="Layer_2" data-name="Layer 2"><g id="Layer_1-2" data-name="Layer 1"><path class="cls-1" d="M84.35,54.18h58.5c4.9,0,5.26.33,5.26,5.06q0,37,0,73.9c0,4.78-.26,5-5.29,5q-40.11,0-80.22,0c-2.57,0-4.18.41-5.46,3.15-2.46,5.28-8.06,7.52-14,6.4s-9.86-5.2-10.56-11.19c-.42-3.55,0-6.94-4.42-9-1.84-.87-2.76-4.85-3.06-7.54-.56-5.08,0-10.3-.59-15.37-1-8.26-4.36-15.57-9.42-22.26C-2.17,59.4,9.35,27.52,37.21,20.81c20.3-4.89,41.51,8.39,46.16,28.88C83.69,51.09,84,52.5,84.35,54.18Zm58.49,5.14H84.42C84.23,69.74,79.49,78,73.8,86.16a39.63,39.63,0,0,0-6.08,14.39c-1.28,6.25-1.26,12.8-1.42,19.23-.11,4.37-1.48,7.58-5.52,9.64-1,.5-1.42,2.06-2.44,3.65h84.5Zm-81,43.93a54.8,54.8,0,0,1,10.5-23.92A33.61,33.61,0,0,0,55.7,26.48a33.08,33.08,0,0,0-37.21,12C10,50.17,9.64,66.66,18.14,78c5.21,7,9.21,14.34,10.92,22.93a3.72,3.72,0,0,0,2.82,2.19C41.74,103.32,51.61,103.25,61.86,103.25Zm-.59,5.13H30.14c0,4.52-.31,8.87.18,13.13.15,1.3,2.47,3.3,3.86,3.36,7.62.34,15.27.21,22.91.15,2.38,0,4.11-1.15,4.16-3.77C61.33,117.06,61.27,112.87,61.27,108.38ZM54,130.26H37.57c-.41,4.34-.8,8.49,3.2,11.24a8.33,8.33,0,0,0,9.34.34C54.5,139.28,54.3,134.94,54,130.26Z"/><path class="cls-1" d="M78.66,30.52c-.54-.47-1.47-.93-1.75-1.64a2.86,2.86,0,0,1,.26-2.47c3.42-3.6,6.9-7.15,10.55-10.51.54-.5,2.32-.23,3.07.31a2.8,2.8,0,0,1,.33,2.73c-3.57,3.81-7.33,7.44-11.05,11.1C79.82,30.29,79.35,30.3,78.66,30.52Z"/><path class="cls-1" d="M2.91,14.51c4.06,4.6,8,9,11.75,13.48.18.21-.66,1.75-1.31,2.06a2.7,2.7,0,0,1-2.45-.36Q5.5,24.56.38,19.15A2.74,2.74,0,0,1,.2,16.7C.5,16,1.47,15.62,2.91,14.51Z"/><path class="cls-1" d="M48.09,7.37A21.32,21.32,0,0,1,48,12.43a3.83,3.83,0,0,1-2.4,2.33c-.6.13-2.19-1.25-2.25-2a67.43,67.43,0,0,1,0-10.54C43.42,1.34,44.94.26,46,0c.48-.12,1.81,1.37,2,2.29a25.18,25.18,0,0,1,.1,5.07Z"/><path class="cls-1" d="M125.92,78.85c3.85,0,6.51-.23,9.1.12,1.08.14,2,1.53,3,2.35-1,.83-1.89,2.31-2.91,2.39a79.43,79.43,0,0,1-11.44.08c-3.11-.22-5.15.93-7,3.3-3,3.83-6.38,7.36-9.41,11.16-1.62,2-3.39,3.3-6,2.83-8.33-1.48-14.73,1.43-19.67,8.2a27.43,27.43,0,0,1-5.61,5.52c-.85.65-2.48.26-3.76.34.14-1.28-.21-3,.49-3.76,4.5-4.79,9.1-9.52,14-13.92,1.22-1.1,3.71-1.47,5.46-1.2,7.57,1.17,13.26-1.24,17.09-7.93.45-.79,1.28-1.34,1.77-2.11C114.75,80.21,119.78,77,125.92,78.85Z"/><path class="cls-1" d="M114.53,123.35c-3.42,0-6.84.19-10.23-.1-1.09-.1-2.06-1.44-3.09-2.21,1.06-.88,2.11-2.49,3.2-2.52q10.23-.36,20.47,0c1.13,0,2.21,1.6,3.32,2.46-1.15.81-2.24,2.19-3.45,2.31-3.38.31-6.81.11-10.22.11Z"/><path class="cls-1" d="M114.54,111.07a99.42,99.42,0,0,1-10.22-.13c-1.12-.11-2.08-1.69-3.12-2.6,1.07-.73,2.11-2,3.2-2.08,6.81-.19,13.64-.21,20.46,0,1.13,0,2.21,1.53,3.31,2.35-1.13.82-2.21,2.23-3.41,2.34C121.38,111.29,118,111.08,114.54,111.07Z"/><path class="cls-1" d="M46.2,35.8c13.61,0,24.94,11.48,25,25.31S59.74,86.7,46,86.65c-14.56-.06-25.64-11-25.71-25.35C20.21,46.75,31.37,35.77,46.2,35.8ZM66.14,61.45c0-11.77-8.68-20.63-20.3-20.69A20.27,20.27,0,0,0,25.13,61.54a20.78,20.78,0,0,0,20.6,20.25A20.54,20.54,0,0,0,66.14,61.45Z"/><path class="cls-1" d="M42.83,73.3c-2.55-.93-6.39.91-6.16-3.1.19-3.46,3.61-2,5.75-2.29,1.43-.17,2.95.23,4.32-.11a13.29,13.29,0,0,0,3.31-1.93,17.78,17.78,0,0,0-3.53-2.12c-1.06-.36-2.35,0-3.52-.13-3.35-.37-5.73-2-6.33-5.48-.64-3.62.5-6.47,4.08-8.06A7.79,7.79,0,0,0,43.1,48.4c1-1.06,1.94-2.27,2.9-3.41l3.49,4.36a2.8,2.8,0,0,1,1.6.18c1.34.63,3.51,1.43,3.64,2.39.38,2.7-2,2.43-3.86,2.47a55.34,55.34,0,0,0-6.7.13c-1,.15-1.83,1.36-2.73,2.09.91.72,1.72,1.82,2.75,2.08,1.49.38,3.15.06,4.71.22a6.28,6.28,0,0,1,5.9,5.47c.62,3.28-.59,5.84-3.5,7.73-1.33.86-2.23,2.36-3.37,3.53-.6.61-1.32,1.59-2,1.56a3.8,3.8,0,0,1-2.46-1.42A6.66,6.66,0,0,1,42.83,73.3Z"/></g></g></svg>