<svg xmlns="http://www.w3.org/2000/svg" viewBox="0 0 130.38 113.15"><defs><style>.cls-1{fill:gray;}</style></defs><g id="Layer_2" data-name="Layer 2"><g id="Isolation_Mode" data-name="Isolation Mode"><path class="cls-1" d="M25.37,101c-2.22,1.92-3.53,4-5.12,4.24-3.15.49-6.56,1.5-8.94-2.68A83.13,83.13,0,0,1,0,62.78c6.77,0,13.21-.24,19.6.19,1.45.09,2.74,2.52,4.11,3.88l-.64.92c3.38,0,6.76.11,10.13,0a63.25,63.25,0,0,1,28.71,5.74c6.55,2.9,14.32,3.09,21.56,4.4a33.12,33.12,0,0,0,4.12.09c3.8.19,6.21,2.31,6.45,5.6S91.9,89.84,88,90c-7.55.36-15.11.35-22.66.54-2.69.07-5.38.28-8.07.42l-.55,1.54c1.12.66,2.24,1.9,3.35,1.88,9.62-.12,19.23-.43,28.83-.78a10.12,10.12,0,0,0,3.51-1.11c9.86-4.34,19.7-8.74,29.56-13.09,1-.43,2.19-1.05,3.13-.84a32.8,32.8,0,0,1,5.28,2c-.76,1.86-1.41,3.78-2.34,5.55-.33.62-1.38.85-2.1,1.24-13.22,7.29-26.49,14.48-39.63,21.9a27.9,27.9,0,0,1-21.86,2.81c-11.64-3.17-23.23-6.57-34.84-9.87Z"/><path class="cls-1" d="M109.21,78.13c0-11.36-.23-22.33.11-33.28.15-4.63-1.33-7.45-5.1-10.14-9-6.45-17.78-13.37-26.51-20.27-2.39-1.88-4.11-1.82-6.48,0C61.62,22,51.81,29.34,42.25,37a7.51,7.51,0,0,0-2.42,5c-.28,6.57-.12,13.16-.12,20.07H32.42V45.64c-.56-.38-.78-.67-1-.65-3.31.47-6.6.49-8-3.24s1.28-5.83,3.95-7.25C36.18,29.85,40,23,38.17,13c-.68-3.68,1.28-5,4.76-4.6a10.08,10.08,0,0,0,1.23,0c6.83,0,6.83,0,7.64,7.16,5.33-4.07,10.39-7.94,15.45-11.79,6.69-5.1,7.92-5.09,14.69.12Q101.53,19,121.13,34.09c2.51,1.92,5.65,3.61,4.4,7.51-1.31,4.07-4.88,3.74-8.82,3.36V69.72C116.71,76.35,116.71,76.35,109.21,78.13Z"/><path class="cls-1" d="M56.11,43.49C56.17,39,59.28,35.27,63,35.2s7,3.66,7,8.1-3.31,8.42-7.21,8.41S56,48.21,56.11,43.49Zm11.26.14-4.2-4.43c-1.08,1.38-2.93,2.71-3,4.15s1.59,3,2.5,4.44C64,46.6,65.37,45.4,67.37,43.63Z"/><path class="cls-1" d="M79.14,58.52c-.08-4.77,3-8.58,7-8.59,3.67,0,6.71,3.51,6.83,7.9s-3.27,8.62-7.12,8.61S79.2,63,79.14,58.52Zm11.32-.44L86,53.94c-1,1.55-2.7,3-2.9,4.68-.14,1.15,1.74,2.54,2.71,3.82Z"/><path class="cls-1" d="M67.47,65.93,64,63.76C69.87,54.37,75.64,45.18,81.4,36l1.45-.14c.35,1.3,1.42,3,.94,3.84C78.53,48.46,73,57.08,67.47,65.93Z"/></g></g></svg>