<svg xmlns="http://www.w3.org/2000/svg" viewBox="0 0 180.7 138.87"><defs><style>.cls-1{fill:gray;}</style></defs><g id="Layer_2" data-name="Layer 2"><g id="Layer_1-2" data-name="Layer 1"><path class="cls-1" d="M0,133.06c2.53-7.08,4.73-13.41,7.08-19.69a6,6,0,0,1,2.16-2.94c10.65-6.53,21.53-13.58,34.6-11.61,8,1.21,15.94,4.55,23.29,8.17,3.63,1.79,6.71,6,8.57,9.78,2.36,4.85,3.23,10.43,5,16.44C53.46,140.64,27.26,140.92,0,133.06Z"/><path class="cls-1" d="M180.7,104.36c-9.92,8.15-19,15.68-28.18,23.07a6.64,6.64,0,0,1-3.9,1q-31.62.09-63.26,0a10.91,10.91,0,0,1-1.72-.34c-1.9-8.61-4.48-17.1-12.32-23.81ZM98,121c14.89,3.18,26.82,0,36-12.84-5.7,0-11-.07-16.28,0a8.12,8.12,0,0,0-4.32,1C108.33,112.91,103.44,116.83,98,121Z"/><path class="cls-1" d="M122.07,70.81l4.78-.3c-.29,1.78-.92,3.58-.77,5.31s1.08,3.44,2,6c2.25-4.22,4-7.82,6.09-11.14A4.73,4.73,0,0,1,138,68.79c15.55,2.72,24.08,13.51,23.71,30H86.1C84.3,84,95.81,69.85,110.38,69.14a4.7,4.7,0,0,1,3.41,2c1.94,3.1,3.51,6.43,5.23,9.68l1.28,0Z"/><path class="cls-1" d="M41.51,58.42c-3.1-8.85-3.1-8.84-11.59-8.82-6.62,0-13.25-.08-19.87,0C6.71,49.69,5.4,48.42,5.48,45c.2-8.47.2-17,.07-25.42,0-3.14,1.22-4.65,4.26-4.66q15.72-.06,31.43-.05h6.34c0,3.91,0,7.52,0,11.13,0,3.23.08,6.47.06,9.7,0,3.62,1.32,6.07,5.33,5.94,3.25-.1,3.72,2,4,4.46.27,2.85-1.79,3.57-3.85,3.37C46.89,48.85,42.57,50.78,41.51,58.42Z"/><path class="cls-1" d="M123.3,30.54c4.32.32,8.2,1.7,10.14,6,4.15,9.19,3.18,20.81-4.76,27.83-4.13,3.64-6.57,3.75-10.92.23-8.37-6.79-10.4-17.9-5.56-27.65C114.4,32.51,118.44,30.77,123.3,30.54Z"/><path class="cls-1" d="M41,61.92c5.69.11,9.44,3.18,11.09,8.63,2.24,7.39,1.89,14.5-2.38,21-.87,1.33-3.36,1.93-5.2,2.2-2.4.36-5-.46-7.31.15-3.23.86-4.91-.57-6.52-2.83-4-5.59-4.18-18.12-.33-23.82C32.88,63.48,36.53,61.87,41,61.92Z"/><path class="cls-1" d="M95.9,48.31c-4.83-9.9-13.33-10-22.26-9.53-6,.33-12-.09-18,.15-4.11.16-5.43-1.67-5.39-5.5.11-9.38.08-18.77,0-28.15,0-3.66,1.52-5.3,5.27-5.28q23.31.14,46.63,0c4,0,5.49,1.62,5.43,5.55-.13,9.38,0,18.77,0,28.16,0,2.84-.48,5.71-4.15,5.14C98,38,96.63,40.58,97.1,45.3a11.28,11.28,0,0,1-.18,2.15ZM104.22,4H54V35.43h50.23Z"/></g></g></svg>