<svg xmlns="http://www.w3.org/2000/svg" viewBox="0 0 83.41 577.38"><defs><style>.cls-1{fill:#1a1a1a;}</style></defs><g id="Layer_2" data-name="Layer 2"><g id="Layer_1-2" data-name="Layer 1"><path class="cls-1" d="M23,409V168.37a1.9,1.9,0,0,1,3.76-.41L52.83,288.29a1.8,1.8,0,0,1,0,.8L26.76,409.41A1.9,1.9,0,0,1,23,409Z"/><path class="cls-1" d="M10.23,573.47,83.25,290a5.2,5.2,0,0,0,0-2.6L10.23,3.9C8.71-2,0-.91,0,5.2v567C0,578.28,8.71,579.39,10.23,573.47ZM13,87.16a3.47,3.47,0,0,1,6.84-.79L67.4,287.89a3.6,3.6,0,0,1,0,1.6L19.84,491a3.47,3.47,0,0,1-6.84-.8Z"/></g></g></svg>