<svg xmlns="http://www.w3.org/2000/svg" viewBox="0 0 62.54 58.92"><defs><style>.ed73596d-3480-4e0b-bea9-e4c4ce8cf643{fill:#5cdcff;}.ac4b0208-045d-4f98-ba60-453e39a9c64d{fill:#fff;}</style></defs><g id="f2505778-d093-43cf-a3fc-944f9d626987" data-name="Layer 2"><g id="e18cccc2-faba-459e-bee6-ff6d0cb0ca0e" data-name="Home"><g id="b645d621-8566-48ff-a0c0-4f4b0721006f" data-name="search icon"><path class="ed73596d-3480-4e0b-bea9-e4c4ce8cf643" d="M24.5,0A24.5,24.5,0,1,0,49,24.5,24.5,24.5,0,0,0,24.5,0Zm0,43A18.5,18.5,0,1,1,43,24.5,18.5,18.5,0,0,1,24.5,43Z"/><rect class="ed73596d-3480-4e0b-bea9-e4c4ce8cf643" x="45.36" y="33.02" width="8.34" height="29.69" rx="3.23" transform="translate(-18.61 57.93) rotate(-52.43)"/></g><g id="ba250e24-85ef-49fb-b13c-d8ca7f8ac03b" data-name="search icon"><path class="ac4b0208-045d-4f98-ba60-453e39a9c64d" d="M24.5,0A24.5,24.5,0,1,0,49,24.5,24.5,24.5,0,0,0,24.5,0Zm0,43A18.5,18.5,0,1,1,43,24.5,18.5,18.5,0,0,1,24.5,43Z"/><rect class="ac4b0208-045d-4f98-ba60-453e39a9c64d" x="45.36" y="33.02" width="8.34" height="29.69" rx="3.23" transform="translate(-18.61 57.93) rotate(-52.43)"/></g></g></g></svg>