<svg xmlns="http://www.w3.org/2000/svg" viewBox="0 0 113.79 113.97"><defs><style>.cls-1{fill:#fff;}</style></defs><g id="Layer_2" data-name="Layer 2"><g id="Isolation_Mode" data-name="Isolation Mode"><path class="cls-1" d="M78.51,114a57.61,57.61,0,0,1-22.33-5.51C32.56,97.34,15.25,79.91,4.63,56A51.24,51.24,0,0,1,0,34.88c0-6.45,1.56-12.45,5.8-17.55,2.78-3.33,6.55-4.95,10.5-6.27a49.7,49.7,0,0,1,5-1.34A3.49,3.49,0,0,1,25.4,12q5.13,12.78,10.25,25.59a4.81,4.81,0,0,1-1.17,5.56c-2.22,2.26-4.48,4.49-6.73,6.72C25.34,52.23,25,54,26.68,56.88A82.89,82.89,0,0,0,57.43,87.39a4.57,4.57,0,0,0,5.91-.83q3.59-3.51,7.1-7.09a5.14,5.14,0,0,1,6.13-1.23c8.27,3.36,16.57,6.65,24.86,10,2.19.87,3.06,2.38,2.55,4.69a36.38,36.38,0,0,1-4,10.73c-3.17,5.37-8.24,8-14.08,9.35C83.52,113.51,81,113.65,78.51,114Z"/><path class="cls-1" d="M56.67.06c27.14.65,50.59,20.54,56,47.52a91.57,91.57,0,0,1,1.14,11.26,3.46,3.46,0,0,1-3.33,3.95A3.52,3.52,0,0,1,106.77,59a50.13,50.13,0,0,0-5.48-23C93,20.08,80,10.52,62.19,7.61c-2.5-.41-5.08-.42-7.62-.59A3.65,3.65,0,0,1,51,3.8,3.52,3.52,0,0,1,53.52.09,18.37,18.37,0,0,1,56.67.06Z"/><path class="cls-1" d="M100,56.92c0,.79,0,1.58,0,2.37a3.53,3.53,0,1,1-7-.2,37.45,37.45,0,0,0-5.78-20c-6.78-10.57-16.44-16.63-29-18-1.14-.12-2.28-.18-3.42-.22-2.25-.08-3.8-1.54-3.76-3.57a3.59,3.59,0,0,1,3.85-3.49A45.48,45.48,0,0,1,100,56.92Z"/><path class="cls-1" d="M55.53,27.74c15.34.37,28.61,12.54,30.25,27.54A37.48,37.48,0,0,1,86,59.1a3.53,3.53,0,1,1-7,.07,23.58,23.58,0,0,0-3.2-12Q68.84,35.52,55.24,34.81a9,9,0,0,1-1.56-.15,3.5,3.5,0,0,1,.74-6.92C54.86,27.72,55.3,27.74,55.53,27.74Z"/></g></g></svg>