<svg xmlns="http://www.w3.org/2000/svg" viewBox="0 0 98.71 80.44"><defs><style>.cls-1{fill:#fff;}</style></defs><g id="Layer_2" data-name="Layer 2"><g id="Isolation_Mode" data-name="Isolation Mode"><path class="cls-1" d="M0,71.38A41.38,41.38,0,0,0,29.69,63c-9.28-.84-15.45-5.51-18.91-14.16a23.28,23.28,0,0,0,9-.37C7.58,45.39,3.32,34.57,3.85,28.39a20.56,20.56,0,0,0,9,2.38A20.34,20.34,0,0,1,4.05,16.39,19.74,19.74,0,0,1,6.66,3.75c11,12.92,24.84,20.05,41.66,21.18-.07-2-.24-4-.19-5.88A20.23,20.23,0,0,1,62.8.76,20,20,0,0,1,82.6,5.88,1.3,1.3,0,0,0,84,6.22,40.8,40.8,0,0,0,95.12,2c.22-.13.46-.22.84-.41a15.72,15.72,0,0,1-3.27,6.17c-1.51,1.72-3.25,3.24-4.85,4.82A41,41,0,0,0,98.5,9.64l.21.24c-1.63,1.91-3.17,3.9-4.92,5.7-1.4,1.46-3.06,2.66-4.55,4a1.84,1.84,0,0,0-.55,1.2c0,20.91-8.26,37.71-25.28,50A52.26,52.26,0,0,1,39.15,79.9a59.64,59.64,0,0,1-24.5-1.78A55.43,55.43,0,0,1,.43,71.74C.33,71.67.24,71.58,0,71.38Z"/></g></g></svg>