<svg xmlns="http://www.w3.org/2000/svg" viewBox="0 0 76.84 118.38"><defs><style>.cls-1{fill:#1a1a1a;}</style></defs><g id="Layer_2" data-name="Layer 2"><g id="Layer_1-2" data-name="Layer 1"><path class="cls-1" d="M38.19,102.7c-4.33-6.35-8.54-12.07-12.28-18.09C17.7,71.41,11,57.5,7.52,42.22,5,31,6.23,20.52,13.89,11.44A31.94,31.94,0,0,1,51.64,2.87C64.78,8.78,72.23,22.54,70.17,37.15c-2.12,15-8.26,28.47-15.68,41.4C50.42,85.63,45.57,92.26,41,99.08,40.35,100.11,39.5,101,38.19,102.7Zm.23-96.18A25.6,25.6,0,1,0,64.07,32,25.73,25.73,0,0,0,38.42,6.52Z"/><path class="cls-1" d="M24.14,88.07l1.44,2.13c-.59.27-1,.53-1.5.7-4.11,1.54-8.49,2.57-12.27,4.69-7,3.9-6.86,10,0,14.18s14.42,5.36,22.22,5.76c9.34.47,18.53-.19,27.27-3.86A23.93,23.93,0,0,0,66,109.09c5.62-4,5.68-9.28-.18-13-3.13-2-6.83-3.1-10.31-4.51a33.26,33.26,0,0,0-4.16-1.08l1.08-2.3c7.26,1.11,14.12,2.86,19.94,7.25s6,10.35-.21,14.31A50.45,50.45,0,0,1,57.43,116a77.72,77.72,0,0,1-43.38-1.47,34.87,34.87,0,0,1-10.94-6.1c-4.22-3.44-4-7.93-.06-11.65a30.41,30.41,0,0,1,6.46-4.3,33.12,33.12,0,0,1,6.28-2.41C18.46,89.28,21.2,88.76,24.14,88.07Z"/><path class="cls-1" d="M34.23,48.26H24.3V33.17L38.39,21.56,52.44,33V48.17h-9.8V36H34.23Z"/><path class="cls-1" d="M26.58,16.6h4l.61,5.08,7.29-5.82L56.8,30.91l-1.56,1.95L38.41,19.16,21.52,33l-1.79-1.69,6.85-5.82Z"/></g></g></svg>