<svg xmlns="http://www.w3.org/2000/svg" viewBox="0 0 233.98 172.31"><defs><style>.cls-1{fill:#1a1a1a;}</style></defs><g id="Layer_2" data-name="Layer 2"><g id="Layer_1-2" data-name="Layer 1"><path class="cls-1" d="M0,78.29c2.33-2.37,4.69-4.7,7-7.12,1.39-1.47,3.06-2.88,3.86-4.65,5.06-11.16,14.7-15.84,26.45-13.12a9.06,9.06,0,0,0,6.78-1.69c9.37-7.54,20.17-7.57,29.24.08a22.51,22.51,0,0,0,7,3.88c5.81,2,10.54,5.26,13,11,1.4,3.27,3.68,4.41,7.06,4.41q56.19-.06,112.38,0c4.28,0,5.88-1.92,5.85-6-.1-12.79.12-25.58-.11-38.37-.19-10.39-6.53-17-15.42-17.07-3.48,0-4.56,1.1-3.51,4.63a20.37,20.37,0,0,1-2.34,16.91,23.68,23.68,0,0,0-1.86,5.47c-1.17,4-3.74,5-6.56,2.15-9.24-9.26-18.3-18.7-27.41-28.09-1.81-1.87-2.07-4.25.48-5.15C168,3.34,174.5,0,180.67.31A184.68,184.68,0,0,0,203.24.05c13.83-.86,24.81,10.26,25.07,24.58.24,13.24-.12,26.48.23,39.71.08,3,1.55,6.25,3.21,8.85,2.29,3.58,3.42,15.1.37,18a12.78,12.78,0,0,1-7.93,3.08c-4.66.12-6.75,2-7.59,6.43-1.69,9-3.77,18-5.61,27-2.78,13.54-9.67,23.54-23.56,27.52-3,.85-3.4,2.38-2.1,5,1.13,2.28,2.37,4.67,2.68,7.12.19,1.54-1.23,3.3-1.93,4.95-1.76-.74-4.09-1-5.13-2.33a28.91,28.91,0,0,1-3.86-7.62c-1.68-4.28-4.7-5.65-9.16-5.63-24.68.13-49.35.06-74,.06-8,0-16,.14-23.92,0-4.36-.1-7.08,1.52-8.59,5.68a27.15,27.15,0,0,1-4.11,8A6.06,6.06,0,0,1,52,171.89c-1-.27-1.77-3.27-1.54-4.88.31-2.15,1.63-4.17,2.63-6.19,1.19-2.4.9-4.13-2-4.65-15.27-2.8-22.45-13.26-26-27.24-2.47-9.62-5.14-19.18-7.55-28.81-.93-3.75-2.8-5.87-6.85-5.62-5.38.33-8.9-2.14-10.67-7.18ZM117.32,94.5H45.6c-5.26,0-10.53,0-15.79.07-3,0-4.65,1.44-3.79,4.58C29.28,111,32.3,123,36.07,134.72c2.38,7.42,8.28,11.69,16,13.07a59.21,59.21,0,0,0,10.3.9c24.81.08,49.62,0,74.43,0,12.63,0,25.26.16,37.89-.07,16.48-.29,24.58-7,28.14-23,1.74-7.78,3.41-15.57,5.06-23.37,1.59-7.43,1.35-7.74-6.17-7.74Q159.49,94.48,117.32,94.5Zm-.42-8h99.71c1.95,0,4,.24,5.8-.38,1.24-.43,2.82-2.12,2.82-3.25s-1.56-2.73-2.81-3.27c-1.42-.62-3.24-.37-4.89-.37q-100.17,0-200.32,0c-1.65,0-3.47-.25-4.89.36-1.25.54-2.83,2.14-2.83,3.27s1.57,2.83,2.8,3.26c1.77.62,3.86.38,5.81.38Zm-31.18-16c-1.81-2.13-2.53-3.75-3.7-4.21-6.91-2.73-12.91-7-19.26-10.68-5.19-3-12,.05-15.08,5.31-3.8,6.38-4.29,6.5-10.12,2.4-.37-.26-.73-.53-1.12-.75C29.53,58.57,20,63,19.81,70.4Z"/><path class="cls-1" d="M140.23,28c1.51-3.82,10.33-9.95,15.2-9L141.12,29.12Z"/><path class="cls-1" d="M148.31,36c1.56-3.89,10.27-9.84,15.18-9l-14.3,10.09Z"/><path class="cls-1" d="M180.18,40.9C179,44.43,170.09,50.8,166,51,167.36,47.42,176.3,41.05,180.18,40.9Z"/><path class="cls-1" d="M171.25,35l-14,9.67-1.1-1.54c3.69-4.6,8.88-7.14,13.71-10.19Z"/></g></g></svg>