<svg xmlns="http://www.w3.org/2000/svg" viewBox="0 0 233.77 160.16"><defs><style>.cls-1{fill:#1a1a1a;}</style></defs><g id="Layer_2" data-name="Layer 2"><g id="Layer_1-2" data-name="Layer 1"><path class="cls-1" d="M79.58,140.73c0-1.45.12-2.91,0-4.34-.94-9.62,1.38-18.55,5-27.41C89.13,97.8,93.17,86.4,97.29,75a28.38,28.38,0,0,0,1-6.16c.58-4.72.57-9.58,1.76-14.14,3-11.64,15.74-22.32,29.5-22.16,18.31.22,36.62,0,54.93.07,15.1,0,29.41,12.91,30,28,.38,9.76,2.86,18.73,6.36,27.66,4,10.31,7.82,20.72,11.56,31.14a21.92,21.92,0,0,1,1.33,7c.14,10,.07,20,.06,30,0,3.14-2.67,4.75-5.39,3.17a3,3,0,0,1-1-2.16c-.14-2.38-.06-4.77-.07-7.16,0-5.1,0-5.11-5-5.11h-132c-3.25,0-3.65.42-3.68,3.6,0,2.75,0,5.5,0,8.25-.05,2.52-.54,2.9-3.43,2.9s-3.45-.38-3.47-2.86c0-5.43,0-10.86,0-16.28Zm77.08-2.57h64.89l2.82,0a2.52,2.52,0,0,0,2.83-2.81c0-2.53.17-5.07,0-7.59-.57-8-5.07-14-14-14-37.54.25-75.09.1-112.63.11-.8,0-1.6,0-2.39,0-5.55.25-10.9,4.89-11.43,10.4a112.85,112.85,0,0,0-.1,11.49A2.22,2.22,0,0,0,89,138.09c1,.06,2,.07,3,.07ZM111.49,78.68c-1.88,0-3.76,0-5.64,0a3.14,3.14,0,0,0-3.41,2.39c-.78,2.33-1.68,4.62-2.53,6.93-2.09,5.63-4.22,11.25-6.24,16.9-.77,2.13-.3,2.56,2,2.37,2.09-.18,4.18-.35,6.27-.36q53.42,0,106.82,0c3,0,6.07.16,9.1.28,1.94.08,2.48-.44,1.83-2.27-2.85-8-5.72-16.09-8.78-24.06A4,4,0,0,0,208,78.8c-3.89-.24-7.81-.1-11.72-.1-1.72,0-2.47.94-2.48,2.6,0,1.45,0,2.9-.11,4.34A3.37,3.37,0,0,1,190.37,89a19.4,19.4,0,0,1-2.16.09H125.46a18.16,18.16,0,0,1-1.95-.07c-2.33-.27-3.36-1.32-3.5-3.64-.07-1.23-.08-2.46-.05-3.69.07-2.12-1-3-3-3C115.11,78.71,113.3,78.69,111.49,78.68Zm45.15-26.5q16.17,0,32.34,0c3.78,0,4.77,1,4.8,4.77,0,4,0,8,0,11.94,0,1.56.47,2.75,2.29,2.77,3.32,0,6.65,0,10,0A2.26,2.26,0,0,0,208.52,69c-.08-2.31-.11-4.63-.38-6.92a25.63,25.63,0,0,0-25.29-22.9c-17.29-.13-34.58-.07-51.87,0a25.42,25.42,0,0,0-15,4.89c-8.73,6.31-11.46,15.22-10.66,25.55.12,1.57,1.14,2.07,2.53,2.07,2.89,0,5.79,0,8.68,0s3.45-.56,3.47-3.42c0-3.83,0-7.67,0-11.5s.69-4.59,4.55-4.59Q140.58,52.16,156.64,52.18Zm-16.8,30c3.4,0,6.8,0,10.19,0,2.85,0,3.34-.49,3.36-3.25q0-8.46,0-16.92c0-2.71-.51-3.23-3.15-3.25q-10.29,0-20.6,0c-2.58,0-3.12.54-3.13,3q-.08,8.67,0,17.35c0,2.5.55,3,3.14,3C133,82.17,136.44,82.14,139.84,82.14Zm34-23.44c-3.4,0-6.8,0-10.2,0-2.71,0-3.23.51-3.25,3.14q-.06,8.57,0,17.14c0,2.57.53,3.12,3,3.13,6.8,0,13.6,0,20.39,0,2.06,0,3.08-.79,3.06-2.94q-.06-8.79,0-17.57c0-2.15-1-3-3-3C180.47,58.74,177.15,58.7,173.82,58.7Z"/><path class="cls-1" d="M.11,109.54C.11,97,.4,84.49,0,72c-.25-7.69,6.73-14.75,14.22-14.2,4,.28,8,0,11.94,0,2.07,0,3.06-.82,3-3,0-5.65,0-11.29,0-16.93,0-2-.91-2.72-2.79-2.7q-6.53,0-13,0a17.29,17.29,0,0,1-3.45-.3c-2.11-.45-3.06-1.65-2.64-3.76,1.44-7.24,2.78-14.51,4.62-21.65C13.33,4,18.56.39,24.73.15,30,0,35.3-.06,40.57.15,47.48.42,52.2,4.51,53.69,11.3c1.37,6.22,2.62,12.47,3.85,18.71.71,3.58-.45,5.08-4.11,5.17-4.55.12-9.11,0-13.67.07-3.13,0-3.58.43-3.59,3.47q0,7.81,0,15.63c0,3,.46,3.45,3.6,3.47,3.69,0,7.38,0,11.07,0,7.45.07,12.82,4.63,14,11.94a33,33,0,0,1,.4,5c0,23.88,0,47.77,0,71.65,0,3-.31,5.58-3.64,6.88-.64.25-1,1.79-1.1,2.77-.26,3.56-2.2,5-5.57,3.61a3.23,3.23,0,0,1-1.36-2.35c-.42-4.35-.35-4.36-4.74-4.36q-16.83,0-33.65,0c-3.41,0-3.7.3-3.81,3.7-.1,2.9-.48,3.25-3.56,3.23-2.9,0-3.37-.37-3.35-3.18,0-2-.34-3.48-2.47-4.27-1.76-.65-1.91-2.36-1.91-4q0-12.92,0-25.84ZM32,146c7.37,0,14.75,0,22.13,0,3.27,0,3.7-.41,3.7-3.57q0-12.26,0-24.52c0-3.13-.44-3.58-3.48-3.59q-22.12,0-44.27,0c-3,0-3.48.46-3.48,3.57q0,12.27,0,24.52c0,3.18.44,3.59,3.7,3.59C17.56,146,24.79,146,32,146Zm.2-63.4c7.52,0,15,0,22.55,0,2.61,0,3-.45,3.08-3,0-2.24,0-4.48,0-6.72,0-5.33-2.3-7.83-7.58-8.38a23.68,23.68,0,0,0-2.38-.1H16.69a22.1,22.1,0,0,0-2.82.13c-4.48.59-7,3.27-7.2,7.8-.09,1.94,0,3.9,0,5.85,0,4.25.19,4.45,4.35,4.45Q21.6,82.6,32.23,82.58Zm0,24.75c7.52,0,15,0,22.58,0,2.61,0,3-.45,3.08-3,0-3.91,0-7.81,0-11.72,0-2.08-.83-3-3-3q-22.7,0-45.38,0c-2.16,0-2.95,1-2.92,3.08,0,3.76,0,7.52,0,11.29,0,2.95.47,3.42,3.41,3.43C17.43,107.35,24.82,107.33,32.2,107.33Zm.25-79.48H47.4c1.62,0,2.76-.46,2.36-2.4C48.84,21,48,16.51,46.91,12.11,46,8.47,43.38,6.63,39.58,6.59c-4.55,0-9.1,0-13.65,0-4.8,0-7.32,2.12-8.27,6.85-.76,3.75-1.49,7.51-2.22,11.27-.52,2.62-.16,3.12,2.5,3.15C22.78,27.89,27.61,27.86,32.45,27.85Z"/><path class="cls-1" d="M32.56,120.8h2.59a3.73,3.73,0,0,1,3.27,5.89,2.53,2.53,0,0,1-1.77,1c-2.73.09-5.47.13-8.2,0-1.9-.09-2.34-1.14-2.29-4.1,0-1.72.63-2.76,2.51-2.73,1.29,0,2.59,0,3.89,0Z"/><path class="cls-1" d="M32.41,76.92c-1.16,0-2.32,0-3.47,0-1.9.06-2.78-.77-2.78-2.71,0-2.6.54-3.62,2.56-3.72,2.6-.13,5.21-.06,7.81,0,2.2,0,2.22,1.62,2.22,3.22s0,3.17-2.22,3.21c-1.38,0-2.75,0-4.12,0Z"/><path class="cls-1" d="M32.45,94.74H35c3.38,0,3.75.4,3.71,3.69,0,2.8-.43,3.21-3.29,3.24-2.23,0-4.46.06-6.69,0s-2.58-.92-2.61-3.82c0-1.85.45-3.13,2.62-3.06,1.22,0,2.45,0,3.67,0Z"/></g></g></svg>